<svg width="19" height="21" viewBox="0 0 19 21" fill="none" xmlns="http://www.w3.org/2000/svg">
<g id="bell.fill">
<g id="Group">
<path id="Vector" d="M1.83914 16.4219H16.6211C17.5647 16.4219 18.1524 15.9092 18.1524 15.1368C18.1524 14.1626 17.2497 13.3228 16.4268 12.5205C15.7792 11.89 15.6242 10.5638 15.5068 9.35577C15.377 5.94743 14.3827 3.54669 11.9802 2.6796C11.6 1.45683 10.5981 0.521606 9.2263 0.521606C7.86376 0.521606 6.85429 1.45683 6.48175 2.6796C4.07916 3.54669 3.08321 5.94743 2.95508 9.35577C2.8377 10.5638 2.68105 11.89 2.03504 12.5205C1.20462 13.3228 0.30957 14.1626 0.30957 15.1368C0.30957 15.9092 0.887996 16.4219 1.83914 16.4219ZM9.2263 20.2342C10.8635 20.2342 12.0581 19.063 12.1768 17.7169H6.28511C6.40214 19.063 7.59843 20.2342 9.2263 20.2342Z" fill="#636265"/>
</g>
</g>
</svg>
